<svg width="40" height="40" viewBox="0 0 40 40" fill="none" xmlns="http://www.w3.org/2000/svg">
<rect width="40" height="40" rx="6" fill="#121213"/>
<path d="M13.9921 31.9854C13.9921 31.9854 9.82822 29.6296 10.287 24.9181C10.7459 20.2066 14.4395 18.2995 14.4395 18.2995C14.4395 18.2995 18.2822 16.5159 21.3448 16.7739C21.3448 16.7739 20.2437 15.0576 22.1249 12.3765C24.0061 9.69544 24.9925 8.99993 24.9925 8.99993C24.9925 8.99993 21.0237 11.0977 19.5898 14.2835C18.3625 16.9983 17.0892 13.9134 16.986 13.7114C16.986 13.7114 16.206 11.5464 13.9921 10.9743C12.1453 10.4919 11.9044 10.7163 11.9044 10.7163C11.9044 10.7163 15.8962 12.5111 15.5521 14.5416C15.3571 15.6858 13.5677 16.9983 12.8794 17.2787C10.3444 18.3444 9.15144 17.5928 8.32555 17.0207C7.67172 16.572 7.35053 14.2162 9.03674 13.588C10.7344 12.9486 11.1818 13.4646 11.3194 13.588C11.6521 13.9134 12.0306 14.7996 10.0806 15.7531C10.0806 15.7531 12.9597 15.5175 12.8794 14.0368C12.8106 12.8925 12.088 12.4663 11.8356 12.2531C11.3194 11.8044 9.23174 11.0416 7.01788 12.3204C4.80403 13.588 4.21902 16.5159 4.21902 16.5159C4.21902 16.5159 3.86343 17.6265 4.05843 19.4774C4.27637 21.5752 4.87285 22.2482 4.87285 22.2482C4.87285 22.2482 4.03549 17.7162 5.72169 17.604C6.6967 17.5367 6.96053 18.8829 6.96053 18.8829C6.96053 18.8829 5.58404 20.9021 6.37552 24.4694C7.167 28.0367 8.78438 28.6088 8.78438 28.6088C8.8532 28.5976 6.15758 25.1649 7.47671 21.6088C8.56643 18.6922 10.3444 19.8252 10.3444 19.8252C10.3444 19.8252 7.74054 23.3925 9.56439 27.4645C11.3882 31.5366 13.9921 31.9854 13.9921 31.9854Z" fill="#F9F8F8"/>
<path d="M23.8799 17.0209C23.8799 17.0209 23.6161 14.3174 24.9811 12.3543C26.3461 10.3912 26.6099 10.3351 26.6099 10.3351C26.6099 10.3351 25.417 12.646 25.2334 13.8463C25.0499 15.0466 25.2334 15.6972 25.2334 15.6972L26.9311 16.1908C26.9311 16.1908 27.6882 10.178 33.5038 12.1187C39.136 13.9921 35.0639 22.3719 35.0639 22.3719C35.0639 22.3719 35.5227 20.7116 35.5227 20.0161C35.5227 19.3206 35.4539 18.9953 35.4539 18.9953C35.4539 18.9953 34.6739 20.0161 33.435 19.9488C33.435 19.9488 33.3777 20.9696 33.1482 22.3719C32.9188 23.7741 32.1388 24.7949 32.1388 24.7949C32.1388 24.7949 32.46 20.7228 31.6226 19.8927C30.7738 19.0626 30.2806 17.6491 30.9688 16.5834C31.4276 15.8879 32.265 15.1588 33.3088 15.7533C33.9283 16.1011 33.63 16.9649 33.63 16.9649C33.63 16.9649 33.8365 16.1684 32.655 16.5834C31.7488 16.8975 32.265 18.1091 32.265 18.1091C32.265 18.1091 33.5038 19.6011 34.9836 17.5706C36.1651 15.944 34.605 13.8463 33.1712 13.7229C32.5518 13.6668 30.1659 13.2517 29.2597 15.4392C28.2846 17.795 30.0397 20.6555 30.0397 20.6555C30.0397 20.6555 31.4162 22.944 30.6935 24.7949C29.9708 26.6459 28.4797 27.8462 28.4797 27.8462C28.4797 27.8462 30.5329 24.851 30.2576 23.4263C30.1085 22.6187 29.7644 21.1379 27.8946 19.3094C26.2314 17.6604 23.8799 17.0209 23.8799 17.0209Z" fill="#F9F8F8"/>
<path d="M23.1007 28.2784L24.199 21H26.4396V31.2512H24.9166V23.8996L23.8036 31.2512H22.2806L21.0797 24.0021V31.2512H19.6738V21H21.9145L23.1007 28.2784Z" fill="#F9F8F8"/>
<path d="M14 21H18.9792V22.4645H17.295V31.2512H15.6841V22.4645H14V21Z" fill="#F9F8F8"/>
</svg>
