<svg width="205" height="284" viewBox="0 0 205 284" fill="none" xmlns="http://www.w3.org/2000/svg">
<g clip-path="url(#clip0_61_3763)">
<path d="M0 87.1C0 87.1 21 50.8 63 54.8C105 58.8 122 91 122 91C122 91 137.9 124.5 135.6 151.2C135.6 151.2 150.9 141.6 174.8 158C198.7 174.4 204.9 183 204.9 183C204.9 183 186.2 148.4 157.8 135.9C133.6 125.2 161.1 114.1 162.9 113.2C162.9 113.2 182.2 106.4 187.3 87.1C191.6 71 189.6 68.9 189.6 68.9C189.6 68.9 173.6 103.7 155.5 100.7C145.3 99 133.6 83.4 131.1 77.4C121.6 55.3 128.3 44.9 133.4 37.7C137.4 32 158.4 29.2 164 43.9C169.7 58.7 165.1 62.6 164 63.8C161.1 66.7 153.2 70 144.7 53C144.7 53 146.8 78.1 160 77.4C170.2 76.8 174 70.5 175.9 68.3C179.9 63.8 186.7 45.6 175.3 26.3C164 6.99997 137.9 1.89997 137.9 1.89997C137.9 1.89997 128 -1.20003 111.5 0.499974C92.8 2.39997 86.8 7.59997 86.8 7.59997C86.8 7.59997 127.2 0.299974 128.2 15C128.8 23.5 116.8 25.8 116.8 25.8C116.8 25.8 98.8 13.8 67 20.7C35.2 27.6 30.1 41.7 30.1 41.7C30.2 42.3 60.8 18.8 92.5 30.3C118.5 39.8 108.4 55.3 108.4 55.3C108.4 55.3 76.6 32.6 40.3 48.5C4 64.4 0 87.1 0 87.1Z" fill="black"/>
<path d="M133.4 173.3C133.4 173.3 157.5 171 175 182.9C192.5 194.8 193 197.1 193 197.1C193 197.1 172.4 186.7 161.7 185.1C151 183.5 145.2 185.1 145.2 185.1L140.8 199.9C140.8 199.9 194.4 206.5 177.1 257.2C160.4 306.3 85.6999 270.8 85.6999 270.8C85.6999 270.8 100.5 274.8 106.7 274.8C112.9 274.8 115.8 274.2 115.8 274.2C115.8 274.2 106.7 267.4 107.3 256.6C107.3 256.6 98.1999 256.1 85.6999 254.1C73.1999 252.1 64.0999 245.3 64.0999 245.3C64.0999 245.3 100.4 248.1 107.8 240.8C115.2 233.4 127.8 229.1 137.3 235.1C143.5 239.1 150 246.4 144.7 255.5C141.6 260.9 133.9 258.3 133.9 258.3C133.9 258.3 141 260.1 137.3 249.8C134.5 241.9 123.7 246.4 123.7 246.4C123.7 246.4 110.4 257.2 128.5 270.1C143 280.4 161.7 266.8 162.8 254.3C163.3 248.9 167 228.1 147.5 220.2C126.5 211.7 101 227 101 227C101 227 80.5999 239 64.0999 232.7C47.5999 226.4 36.8999 213.4 36.8999 213.4C36.8999 213.4 63.5999 231.3 76.2999 228.9C83.4999 227.6 96.6999 224.6 113 208.3C127.7 193.8 133.4 173.3 133.4 173.3Z" fill="black"/>
</g>
<defs>
<clipPath id="clip0_61_3763">
<rect width="204.9" height="283.3" fill="white"/>
</clipPath>
</defs>
</svg>
